<?xml version="1.0" encoding="UTF-8"?>
<svg width="220px" height="13px" viewBox="0 0 220 13" version="1.1" xmlns="http://www.w3.org/2000/svg" xmlns:xlink="http://www.w3.org/1999/xlink">
    <!-- Generator: Sketch 44.1 (41455) - http://www.bohemiancoding.com/sketch -->
    <title>Combined Shape</title>
    <desc>Created with Sketch.</desc>
    <defs>
        <linearGradient x1="0%" y1="51.3100088%" x2="100%" y2="51.3100088%" id="linearGradient-1">
            <stop stop-color="#FEFC8B" offset="0%"></stop>
            <stop stop-color="#FEDC73" offset="15.0430485%"></stop>
            <stop stop-color="#FCC471" offset="28.8604114%"></stop>
            <stop stop-color="#FCAC71" offset="42.8770727%"></stop>
            <stop stop-color="#FD8D6F" offset="57.2265625%"></stop>
            <stop stop-color="#FC6C6F" offset="71.1296237%"></stop>
            <stop stop-color="#EB5859" offset="84.7078284%"></stop>
            <stop stop-color="#DD4649" offset="100%"></stop>
        </linearGradient>
    </defs>
    <g id="HOME" stroke="none" stroke-width="1" fill="none" fill-rule="evenodd">
        <g id="Landing-Copy-3" transform="translate(-202.000000, -2248.000000)" fill="url(#linearGradient-1)">
            <g id="legend" transform="translate(191.000000, 2223.000000)">
                <path d="M17.4367816,37.8735632 C13.8818453,37.8735632 11,34.9917179 11,31.4367816 C11,27.8818453 13.8818453,25 17.4367816,25 C20.9917179,25 23.8735632,27.8818453 23.8735632,31.4367816 C23.8735632,34.9917179 20.9917179,37.8735632 17.4367816,37.8735632 Z M43.3275862,33.2758621 C42.3118901,33.2758621 41.4885057,32.4524777 41.4885057,31.4367816 C41.4885057,30.4210855 42.3118901,29.5977011 43.3275862,29.5977011 C44.3432823,29.5977011 45.1666667,30.4210855 45.1666667,31.4367816 C45.1666667,32.4524777 44.3432823,33.2758621 43.3275862,33.2758621 Z M95.1091954,33.2758621 C94.0934993,33.2758621 93.2701149,32.4524777 93.2701149,31.4367816 C93.2701149,30.4210855 94.0934993,29.5977011 95.1091954,29.5977011 C96.1248915,29.5977011 96.9482759,30.4210855 96.9482759,31.4367816 C96.9482759,32.4524777 96.1248915,33.2758621 95.1091954,33.2758621 Z M146.890805,33.2758621 C145.875109,33.2758621 145.051724,32.4524777 145.051724,31.4367816 C145.051724,30.4210855 145.875109,29.5977011 146.890805,29.5977011 C147.906501,29.5977011 148.729885,30.4210855 148.729885,31.4367816 C148.729885,32.4524777 147.906501,33.2758621 146.890805,33.2758621 Z M121,37.8735632 C117.445064,37.8735632 114.563218,34.9917179 114.563218,31.4367816 C114.563218,27.8818453 117.445064,25 121,25 C124.554936,25 127.436782,27.8818453 127.436782,31.4367816 C127.436782,34.9917179 124.554936,37.8735632 121,37.8735632 Z M198.672414,33.2758621 C197.656718,33.2758621 196.833333,32.4524777 196.833333,31.4367816 C196.833333,30.4210855 197.656718,29.5977011 198.672414,29.5977011 C199.68811,29.5977011 200.511494,30.4210855 200.511494,31.4367816 C200.511494,32.4524777 199.68811,33.2758621 198.672414,33.2758621 Z M172.781609,37.8735632 C169.226673,37.8735632 166.344828,34.9917179 166.344828,31.4367816 C166.344828,27.8818453 169.226673,25 172.781609,25 C176.336546,25 179.218391,27.8818453 179.218391,31.4367816 C179.218391,34.9917179 176.336546,37.8735632 172.781609,37.8735632 Z M53.9741379,33.2758621 C52.9584418,33.2758621 52.1350575,32.4524777 52.1350575,31.4367816 C52.1350575,30.4210855 52.9584418,29.5977011 53.9741379,29.5977011 C54.989834,29.5977011 55.8132184,30.4210855 55.8132184,31.4367816 C55.8132184,32.4524777 54.989834,33.2758621 53.9741379,33.2758621 Z M105.755747,33.2758621 C104.740051,33.2758621 103.916667,32.4524777 103.916667,31.4367816 C103.916667,30.4210855 104.740051,29.5977011 105.755747,29.5977011 C106.771443,29.5977011 107.594828,30.4210855 107.594828,31.4367816 C107.594828,32.4524777 106.771443,33.2758621 105.755747,33.2758621 Z M157.537356,33.2758621 C156.52166,33.2758621 155.698276,32.4524777 155.698276,31.4367816 C155.698276,30.4210855 156.52166,29.5977011 157.537356,29.5977011 C158.553052,29.5977011 159.376437,30.4210855 159.376437,31.4367816 C159.376437,32.4524777 158.553052,33.2758621 157.537356,33.2758621 Z M209.318966,33.2758621 C208.303269,33.2758621 207.479885,32.4524777 207.479885,31.4367816 C207.479885,30.4210855 208.303269,29.5977011 209.318966,29.5977011 C210.334662,29.5977011 211.158046,30.4210855 211.158046,31.4367816 C211.158046,32.4524777 210.334662,33.2758621 209.318966,33.2758621 Z M32.6810345,33.2758621 C31.6653384,33.2758621 30.841954,32.4524777 30.841954,31.4367816 C30.841954,30.4210855 31.6653384,29.5977011 32.6810345,29.5977011 C33.6967306,29.5977011 34.5201149,30.4210855 34.5201149,31.4367816 C34.5201149,32.4524777 33.6967306,33.2758621 32.6810345,33.2758621 Z M84.4626437,33.2758621 C83.4469476,33.2758621 82.6235632,32.4524777 82.6235632,31.4367816 C82.6235632,30.4210855 83.4469476,29.5977011 84.4626437,29.5977011 C85.4783398,29.5977011 86.3017241,30.4210855 86.3017241,31.4367816 C86.3017241,32.4524777 85.4783398,33.2758621 84.4626437,33.2758621 Z M136.244253,33.2758621 C135.228557,33.2758621 134.405172,32.4524777 134.405172,31.4367816 C134.405172,30.4210855 135.228557,29.5977011 136.244253,29.5977011 C137.259949,29.5977011 138.083333,30.4210855 138.083333,31.4367816 C138.083333,32.4524777 137.259949,33.2758621 136.244253,33.2758621 Z M188.025862,33.2758621 C187.010166,33.2758621 186.186782,32.4524777 186.186782,31.4367816 C186.186782,30.4210855 187.010166,29.5977011 188.025862,29.5977011 C189.041558,29.5977011 189.864943,30.4210855 189.864943,31.4367816 C189.864943,32.4524777 189.041558,33.2758621 188.025862,33.2758621 Z M69.2183908,37.8735632 C65.6634545,37.8735632 62.7816092,34.9917179 62.7816092,31.4367816 C62.7816092,27.8818453 65.6634545,25 69.2183908,25 C72.7733271,25 75.6551724,27.8818453 75.6551724,31.4367816 C75.6551724,34.9917179 72.7733271,37.8735632 69.2183908,37.8735632 Z M224.563218,37.8735632 C221.008282,37.8735632 218.126437,34.9917179 218.126437,31.4367816 C218.126437,27.8818453 221.008282,25 224.563218,25 C228.118155,25 231,27.8818453 231,31.4367816 C231,34.9917179 228.118155,37.8735632 224.563218,37.8735632 Z" id="Combined-Shape"></path>
            </g>
        </g>
    </g>
</svg>