<svg xmlns="http://www.w3.org/2000/svg" width="175" height="28" viewBox="0 0 175 28">
  <defs>
    <linearGradient id="a" x1="0%" y1="51.31%" y2="51.31%">
      <stop stop-color="#FEFC8B" offset="0%"/>
      <stop stop-color="#FEDC73" offset="15.043%"/>
      <stop stop-color="#FCC471" offset="28.86%"/>
      <stop stop-color="#FCAC71" offset="42.877%"/>
      <stop stop-color="#FD8D6F" offset="57.227%"/>
      <stop stop-color="#FC6C6F" offset="71.13%"/>
      <stop stop-color="#EB5859" offset="84.708%"/>
      <stop stop-color="#DD4649" offset="100%"/>
    </linearGradient>
  </defs>
  <g fill="none" fill-rule="evenodd">
    <text fill="#FFFFFF" opacity=".4" font-family="Roboto-Medium, Roboto" font-size="14" font-weight="400">
      <tspan x="0" y="25">&lt;0.2</tspan>
    </text>
    <text fill="#FFFFFF" opacity=".4" font-family="Roboto-Medium, Roboto" font-size="14" font-weight="400">
      <tspan x="43.588" y="25">0.3</tspan>
    </text>
    <text fill="#FFFFFF" opacity=".4" font-family="Roboto-Medium, Roboto" font-size="14" font-weight="400">
      <tspan x="80.588" y="25">0.5</tspan>
    </text>
    <text fill="#FFFFFF" opacity=".4" font-family="Roboto-Medium, Roboto" font-size="14" font-weight="400">
      <tspan x="117.588" y="25">0.7</tspan>
    </text>
    <text fill="#FFFFFF" opacity=".4" font-family="Roboto-Medium, Roboto" font-size="14" font-weight="400">
      <tspan x="147.944" y="25">&gt;0.8</tspan>
    </text>
    <path fill="url(#a)" d="M17.4367816,12.8735632 C13.8818453,12.8735632 11,9.99171793 11,6.43678161 C11,2.88184529 13.8818453,0 17.4367816,0 C20.9917179,0 23.8735632,2.88184529 23.8735632,6.43678161 C23.8735632,9.99171793 20.9917179,12.8735632 17.4367816,12.8735632 Z M35.8275862,8.27586207 C34.8118901,8.27586207 33.9885057,7.4524777 33.9885057,6.43678161 C33.9885057,5.42108552 34.8118901,4.59770115 35.8275862,4.59770115 C36.8432823,4.59770115 37.6666667,5.42108552 37.6666667,6.43678161 C37.6666667,7.4524777 36.8432823,8.27586207 35.8275862,8.27586207 Z M72.6091954,8.27586207 C71.5934993,8.27586207 70.7701149,7.4524777 70.7701149,6.43678161 C70.7701149,5.42108552 71.5934993,4.59770115 72.6091954,4.59770115 C73.6248915,4.59770115 74.4482759,5.42108552 74.4482759,6.43678161 C74.4482759,7.4524777 73.6248915,8.27586207 72.6091954,8.27586207 Z M109.390805,8.27586207 C108.375109,8.27586207 107.551724,7.4524777 107.551724,6.43678161 C107.551724,5.42108552 108.375109,4.59770115 109.390805,4.59770115 C110.406501,4.59770115 111.229885,5.42108552 111.229885,6.43678161 C111.229885,7.4524777 110.406501,8.27586207 109.390805,8.27586207 Z M91,12.8735632 C87.4450637,12.8735632 84.5632184,9.99171793 84.5632184,6.43678161 C84.5632184,2.88184529 87.4450637,0 91,0 C94.5549363,0 97.4367816,2.88184529 97.4367816,6.43678161 C97.4367816,9.99171793 94.5549363,12.8735632 91,12.8735632 Z M146.172414,8.27586207 C145.156718,8.27586207 144.333333,7.4524777 144.333333,6.43678161 C144.333333,5.42108552 145.156718,4.59770115 146.172414,4.59770115 C147.18811,4.59770115 148.011494,5.42108552 148.011494,6.43678161 C148.011494,7.4524777 147.18811,8.27586207 146.172414,8.27586207 Z M127.781609,12.8735632 C124.226673,12.8735632 121.344828,9.99171793 121.344828,6.43678161 C121.344828,2.88184529 124.226673,0 127.781609,0 C131.336546,0 134.218391,2.88184529 134.218391,6.43678161 C134.218391,9.99171793 131.336546,12.8735632 127.781609,12.8735632 Z M42.2643678,8.27586207 C41.2486717,8.27586207 40.4252874,7.4524777 40.4252874,6.43678161 C40.4252874,5.42108552 41.2486717,4.59770115 42.2643678,4.59770115 C43.2800639,4.59770115 44.1034483,5.42108552 44.1034483,6.43678161 C44.1034483,7.4524777 43.2800639,8.27586207 42.2643678,8.27586207 Z M79.045977,8.27586207 C78.0302809,8.27586207 77.2068966,7.4524777 77.2068966,6.43678161 C77.2068966,5.42108552 78.0302809,4.59770115 79.045977,4.59770115 C80.0616731,4.59770115 80.8850575,5.42108552 80.8850575,6.43678161 C80.8850575,7.4524777 80.0616731,8.27586207 79.045977,8.27586207 Z M115.827586,8.27586207 C114.81189,8.27586207 113.988506,7.4524777 113.988506,6.43678161 C113.988506,5.42108552 114.81189,4.59770115 115.827586,4.59770115 C116.843282,4.59770115 117.666667,5.42108552 117.666667,6.43678161 C117.666667,7.4524777 116.843282,8.27586207 115.827586,8.27586207 Z M152.609195,8.27586207 C151.593499,8.27586207 150.770115,7.4524777 150.770115,6.43678161 C150.770115,5.42108552 151.593499,4.59770115 152.609195,4.59770115 C153.624891,4.59770115 154.448276,5.42108552 154.448276,6.43678161 C154.448276,7.4524777 153.624891,8.27586207 152.609195,8.27586207 Z M29.3908046,8.27586207 C28.3751085,8.27586207 27.5517241,7.4524777 27.5517241,6.43678161 C27.5517241,5.42108552 28.3751085,4.59770115 29.3908046,4.59770115 C30.4065007,4.59770115 31.2298851,5.42108552 31.2298851,6.43678161 C31.2298851,7.4524777 30.4065007,8.27586207 29.3908046,8.27586207 Z M66.1724138,8.27586207 C65.1567177,8.27586207 64.3333333,7.4524777 64.3333333,6.43678161 C64.3333333,5.42108552 65.1567177,4.59770115 66.1724138,4.59770115 C67.1881099,4.59770115 68.0114943,5.42108552 68.0114943,6.43678161 C68.0114943,7.4524777 67.1881099,8.27586207 66.1724138,8.27586207 Z M102.954023,8.27586207 C101.938327,8.27586207 101.114943,7.4524777 101.114943,6.43678161 C101.114943,5.42108552 101.938327,4.59770115 102.954023,4.59770115 C103.969719,4.59770115 104.793103,5.42108552 104.793103,6.43678161 C104.793103,7.4524777 103.969719,8.27586207 102.954023,8.27586207 Z M139.735632,8.27586207 C138.719936,8.27586207 137.896552,7.4524777 137.896552,6.43678161 C137.896552,5.42108552 138.719936,4.59770115 139.735632,4.59770115 C140.751328,4.59770115 141.574713,5.42108552 141.574713,6.43678161 C141.574713,7.4524777 140.751328,8.27586207 139.735632,8.27586207 Z M54.2183908,12.8735632 C50.6634545,12.8735632 47.7816092,9.99171793 47.7816092,6.43678161 C47.7816092,2.88184529 50.6634545,0 54.2183908,0 C57.7733271,0 60.6551724,2.88184529 60.6551724,6.43678161 C60.6551724,9.99171793 57.7733271,12.8735632 54.2183908,12.8735632 Z M164.563218,12.8735632 C161.008282,12.8735632 158.126437,9.99171793 158.126437,6.43678161 C158.126437,2.88184529 161.008282,0 164.563218,0 C168.118155,0 171,2.88184529 171,6.43678161 C171,9.99171793 168.118155,12.8735632 164.563218,12.8735632 Z"/>
  </g>
</svg>
