<?xml version="1.0" encoding="UTF-8"?>
<svg width="160px" height="13px" viewBox="0 0 160 13" version="1.1" xmlns="http://www.w3.org/2000/svg" xmlns:xlink="http://www.w3.org/1999/xlink">
    <!-- Generator: Sketch 42 (36781) - http://www.bohemiancoding.com/sketch -->
    <title>Combined Shape</title>
    <desc>Created with Sketch.</desc>
    <defs>
        <linearGradient x1="0%" y1="51.3100088%" x2="100%" y2="51.3100088%" id="linearGradient-1">
            <stop stop-color="#FEFC8B" offset="0%"></stop>
            <stop stop-color="#FEDC73" offset="15.0430485%"></stop>
            <stop stop-color="#FCC471" offset="28.8604114%"></stop>
            <stop stop-color="#FCAC71" offset="42.8770727%"></stop>
            <stop stop-color="#FD8D6F" offset="57.2265625%"></stop>
            <stop stop-color="#FC6C6F" offset="71.1296237%"></stop>
            <stop stop-color="#EB5859" offset="84.7078284%"></stop>
            <stop stop-color="#DD4649" offset="100%"></stop>
        </linearGradient>
    </defs>
    <g id="Page-1" stroke="none" stroke-width="1" fill="none" fill-rule="evenodd">
        <path d="M6.43678161,12.8735632 C2.88184529,12.8735632 0,9.99171793 0,6.43678161 C0,2.88184529 2.88184529,0 6.43678161,0 C9.99171793,0 12.8735632,2.88184529 12.8735632,6.43678161 C12.8735632,9.99171793 9.99171793,12.8735632 6.43678161,12.8735632 Z M24.8275862,8.27586207 C23.8118901,8.27586207 22.9885057,7.4524777 22.9885057,6.43678161 C22.9885057,5.42108552 23.8118901,4.59770115 24.8275862,4.59770115 C25.8432823,4.59770115 26.6666667,5.42108552 26.6666667,6.43678161 C26.6666667,7.4524777 25.8432823,8.27586207 24.8275862,8.27586207 Z M61.6091954,8.27586207 C60.5934993,8.27586207 59.7701149,7.4524777 59.7701149,6.43678161 C59.7701149,5.42108552 60.5934993,4.59770115 61.6091954,4.59770115 C62.6248915,4.59770115 63.4482759,5.42108552 63.4482759,6.43678161 C63.4482759,7.4524777 62.6248915,8.27586207 61.6091954,8.27586207 Z M98.3908046,8.27586207 C97.3751085,8.27586207 96.5517241,7.4524777 96.5517241,6.43678161 C96.5517241,5.42108552 97.3751085,4.59770115 98.3908046,4.59770115 C99.4065007,4.59770115 100.229885,5.42108552 100.229885,6.43678161 C100.229885,7.4524777 99.4065007,8.27586207 98.3908046,8.27586207 Z M80,12.8735632 C76.4450637,12.8735632 73.5632184,9.99171793 73.5632184,6.43678161 C73.5632184,2.88184529 76.4450637,0 80,0 C83.5549363,0 86.4367816,2.88184529 86.4367816,6.43678161 C86.4367816,9.99171793 83.5549363,12.8735632 80,12.8735632 Z M135.172414,8.27586207 C134.156718,8.27586207 133.333333,7.4524777 133.333333,6.43678161 C133.333333,5.42108552 134.156718,4.59770115 135.172414,4.59770115 C136.18811,4.59770115 137.011494,5.42108552 137.011494,6.43678161 C137.011494,7.4524777 136.18811,8.27586207 135.172414,8.27586207 Z M116.781609,12.8735632 C113.226673,12.8735632 110.344828,9.99171793 110.344828,6.43678161 C110.344828,2.88184529 113.226673,0 116.781609,0 C120.336546,0 123.218391,2.88184529 123.218391,6.43678161 C123.218391,9.99171793 120.336546,12.8735632 116.781609,12.8735632 Z M31.2643678,8.27586207 C30.2486717,8.27586207 29.4252874,7.4524777 29.4252874,6.43678161 C29.4252874,5.42108552 30.2486717,4.59770115 31.2643678,4.59770115 C32.2800639,4.59770115 33.1034483,5.42108552 33.1034483,6.43678161 C33.1034483,7.4524777 32.2800639,8.27586207 31.2643678,8.27586207 Z M68.045977,8.27586207 C67.0302809,8.27586207 66.2068966,7.4524777 66.2068966,6.43678161 C66.2068966,5.42108552 67.0302809,4.59770115 68.045977,4.59770115 C69.0616731,4.59770115 69.8850575,5.42108552 69.8850575,6.43678161 C69.8850575,7.4524777 69.0616731,8.27586207 68.045977,8.27586207 Z M104.827586,8.27586207 C103.81189,8.27586207 102.988506,7.4524777 102.988506,6.43678161 C102.988506,5.42108552 103.81189,4.59770115 104.827586,4.59770115 C105.843282,4.59770115 106.666667,5.42108552 106.666667,6.43678161 C106.666667,7.4524777 105.843282,8.27586207 104.827586,8.27586207 Z M141.609195,8.27586207 C140.593499,8.27586207 139.770115,7.4524777 139.770115,6.43678161 C139.770115,5.42108552 140.593499,4.59770115 141.609195,4.59770115 C142.624891,4.59770115 143.448276,5.42108552 143.448276,6.43678161 C143.448276,7.4524777 142.624891,8.27586207 141.609195,8.27586207 Z M18.3908046,8.27586207 C17.3751085,8.27586207 16.5517241,7.4524777 16.5517241,6.43678161 C16.5517241,5.42108552 17.3751085,4.59770115 18.3908046,4.59770115 C19.4065007,4.59770115 20.2298851,5.42108552 20.2298851,6.43678161 C20.2298851,7.4524777 19.4065007,8.27586207 18.3908046,8.27586207 Z M55.1724138,8.27586207 C54.1567177,8.27586207 53.3333333,7.4524777 53.3333333,6.43678161 C53.3333333,5.42108552 54.1567177,4.59770115 55.1724138,4.59770115 C56.1881099,4.59770115 57.0114943,5.42108552 57.0114943,6.43678161 C57.0114943,7.4524777 56.1881099,8.27586207 55.1724138,8.27586207 Z M91.954023,8.27586207 C90.9383269,8.27586207 90.1149425,7.4524777 90.1149425,6.43678161 C90.1149425,5.42108552 90.9383269,4.59770115 91.954023,4.59770115 C92.9697191,4.59770115 93.7931034,5.42108552 93.7931034,6.43678161 C93.7931034,7.4524777 92.9697191,8.27586207 91.954023,8.27586207 Z M128.735632,8.27586207 C127.719936,8.27586207 126.896552,7.4524777 126.896552,6.43678161 C126.896552,5.42108552 127.719936,4.59770115 128.735632,4.59770115 C129.751328,4.59770115 130.574713,5.42108552 130.574713,6.43678161 C130.574713,7.4524777 129.751328,8.27586207 128.735632,8.27586207 Z M43.2183908,12.8735632 C39.6634545,12.8735632 36.7816092,9.99171793 36.7816092,6.43678161 C36.7816092,2.88184529 39.6634545,0 43.2183908,0 C46.7733271,0 49.6551724,2.88184529 49.6551724,6.43678161 C49.6551724,9.99171793 46.7733271,12.8735632 43.2183908,12.8735632 Z M153.563218,12.8735632 C150.008282,12.8735632 147.126437,9.99171793 147.126437,6.43678161 C147.126437,2.88184529 150.008282,0 153.563218,0 C157.118155,0 160,2.88184529 160,6.43678161 C160,9.99171793 157.118155,12.8735632 153.563218,12.8735632 Z" id="Combined-Shape" fill="url(#linearGradient-1)"></path>
    </g>
</svg>