<svg xmlns="http://www.w3.org/2000/svg" width="383" height="279" viewBox="0 0 383 279"><title>Oval 5 Copy</title><path opacity=".1" fill="#FFF" d="M90.96 236.49c70.99 23.49 46 48.26 100.46 40.16 1.07-.16 1.71-.99 2.56-1.48 105.19-60.37 188.06-41.34 188.06-143.25 0-101.06 15.1-97.58-85.31-99.94C256.09 36.09 210.83 0 147.35 0 83.86 0 0 37.42 0 131.92 0 204.15 19.98 213 90.96 236.49z"/><path opacity=".6" fill="#F7D755" d="M118.89 209.3c51.41 17.01 33.31 34.95 72.76 29.08.78-.11 1.24-.72 1.85-1.07 76.19-43.73 136.21-29.95 136.21-103.76 0-73.2 10.94-70.68-61.79-72.39C238.49 64.14 205.71 38 159.73 38 113.74 38 53 65.1 53 133.55c0 52.32 14.47 58.73 65.89 75.75z"/><path opacity=".6" fill="#F70" d="M137.6 183.82c13.12 8.95 15.25 21.53 33.89 21.53 39.86 0 72.17-32.31 72.17-72.17S211.35 69 171.49 69c-19.91 0-32.4 3.97-45.46 17.01C112.95 99.07 98 124.62 98 144.57c0 21.22 24.67 29.07 39.6 39.25z"/><path opacity=".5" fill="#EC123F" d="M150.77 155c5.75 5.15 13.41 10 21.73 10 17.95 0 32.5-14.55 32.5-32.5S190.45 100 172.5 100c-10.08 0-20.8 1.43-26.76 8.64-4.65 5.62-5.74 16-5.74 23.86 0 9.63 4.12 16.55 10.77 22.5z"/><path fill="#A01A60" d="M156 132c0-8.284 6.716-15 15-15s15 6.716 15 15-6.716 15-15 15-15-6.716-15-15z"/></svg>